<svg width="22" height="22" viewBox="0 0 22 22" fill="none" xmlns="http://www.w3.org/2000/svg">
<path d="M18.4604 10.6604C19.1799 10.8248 19.1799 11.8496 18.4604 12.0139L13.0889 13.2411C12.829 13.3004 12.6261 13.5033 12.5667 13.7632L11.3396 19.1347C11.1752 19.8542 10.1504 19.8542 9.98609 19.1347L8.75893 13.7632C8.69957 13.5033 8.49665 13.3004 8.23679 13.2411L2.86525 12.0139C2.14581 11.8496 2.14581 10.8248 2.86525 10.6604L8.23679 9.43326C8.49665 9.37389 8.69957 9.17098 8.75893 8.91112L9.98609 3.53958C10.1504 2.82014 11.1752 2.82014 11.3396 3.53958L12.5667 8.91112C12.6261 9.17098 12.829 9.37389 13.0889 9.43326L18.4604 10.6604Z" fill="white" fill-opacity="0.29"/>
</svg>
