<svg width="26" height="26" viewBox="0 0 26 26" fill="none" xmlns="http://www.w3.org/2000/svg">
<path d="M19.9892 6.3768C18.5965 5.72516 17.1231 5.26215 15.608 5C15.4193 5.34119 15.1988 5.8001 15.0467 6.16518C13.4132 5.91955 11.7947 5.91955 10.1912 6.16518C10.0392 5.80018 9.81372 5.34119 9.62326 5C8.10668 5.26227 6.63206 5.72646 5.2387 6.3802C2.46603 10.5701 1.71438 14.6559 2.09017 18.6838C3.92918 20.0571 5.71138 20.8914 7.46354 21.4373C7.899 20.8385 8.28393 20.2045 8.61437 19.5419C7.98526 19.3024 7.37878 19.0073 6.80214 18.6599C6.95389 18.5475 7.10207 18.4303 7.24645 18.3085C10.7407 19.9428 14.5373 19.9428 17.9899 18.3085C18.1349 18.4294 18.283 18.5466 18.4341 18.6599C17.8565 19.0082 17.2489 19.3039 16.6186 19.5437C16.9509 20.209 17.3351 20.8436 17.7694 21.439C19.5232 20.8932 21.3071 20.0589 23.1461 18.6838C23.5871 14.0145 22.3929 9.96615 19.9892 6.37671V6.3768ZM9.09044 16.2067C8.04148 16.2067 7.18125 15.2275 7.18125 14.035C7.18125 12.8425 8.02315 11.8616 9.09044 11.8616C10.1578 11.8616 11.018 12.8408 10.9996 14.035C11.0013 15.2275 10.1578 16.2067 9.09044 16.2067ZM16.1458 16.2067C15.0968 16.2067 14.2367 15.2275 14.2367 14.035C14.2367 12.8425 15.0785 11.8616 16.1458 11.8616C17.2132 11.8616 18.0733 12.8408 18.055 14.035C18.055 15.2275 17.2132 16.2067 16.1458 16.2067V16.2067Z" fill="white"/>
</svg>
