<svg width="26" height="26" viewBox="0 0 26 26" fill="none" xmlns="http://www.w3.org/2000/svg">
<path d="M12.5479 2.0625C6.50781 2.0625 1.61035 6.95996 1.61035 13C1.61035 19.04 6.50781 23.9375 12.5479 23.9375C18.5879 23.9375 23.4854 19.04 23.4854 13C23.4854 6.95996 18.5879 2.0625 12.5479 2.0625ZM18.7979 8.25635L17.8018 9.21094C17.7139 9.27686 17.6724 9.38428 17.6895 9.48926V16.5132C17.6724 16.6206 17.7139 16.728 17.8018 16.7915L18.7783 17.7461V17.9585H13.876V17.7559L14.8843 16.7769C14.9844 16.6768 14.9844 16.6475 14.9844 16.4985V10.8149L12.1768 17.9341H11.7983L8.53174 10.8149V15.5879C8.50244 15.7881 8.57324 15.9907 8.71484 16.1348L10.0283 17.7241V17.9365H6.29785V17.7241L7.61133 16.1348C7.68053 16.0633 7.73203 15.9766 7.76171 15.8816C7.79139 15.7867 7.79841 15.6861 7.78223 15.5879V10.0703C7.79932 9.9165 7.74072 9.76758 7.62353 9.6626L6.45654 8.25635V8.04395H10.082L12.8799 14.1841L15.3433 8.04883H18.7979V8.25635Z" fill="white"/>
</svg>
