<svg width="26" height="26" viewBox="0 0 26 26" fill="none" xmlns="http://www.w3.org/2000/svg">
<path d="M24.0478 6.12107C23.2222 6.48682 22.3465 6.7269 21.4498 6.83332C22.3838 6.27351 23.101 5.38703 23.4387 4.3308C22.5508 4.8577 21.5794 5.22893 20.5664 5.42846C19.7412 4.54939 18.5657 4 17.2646 4C14.7665 4 12.7411 6.0253 12.7411 8.52325C12.7411 8.87783 12.7811 9.22301 12.8582 9.55416C9.09889 9.36546 5.76588 7.56469 3.53482 4.828C3.14554 5.49607 2.92248 6.27317 2.92248 7.10203C2.92248 8.67139 3.72111 10.0558 4.93477 10.867C4.21645 10.8445 3.51394 10.6505 2.88588 10.3012C2.88562 10.3202 2.88562 10.3391 2.88562 10.3581C2.88562 12.5497 4.44481 14.378 6.51404 14.7935C5.84794 14.9747 5.14925 15.0012 4.47134 14.8711C5.04691 16.6681 6.71746 17.9758 8.69678 18.0124C7.14869 19.2256 5.19823 19.9488 3.07905 19.9488C2.71389 19.9488 2.35389 19.9273 2 19.8856C4.00179 21.169 6.37943 21.9178 8.93388 21.9178C17.2541 21.9178 21.8038 15.0252 21.8038 9.04784C21.8038 8.85165 21.7995 8.65657 21.7907 8.46262C22.6763 7.82245 23.4406 7.02952 24.0478 6.12107" fill="white"/>
</svg>
